<?xml version="1.0" encoding="UTF-8" standalone="no"?>
<svg
   xmlns:dc="http://purl.org/dc/elements/1.1/"
   xmlns:cc="http://creativecommons.org/ns#"
   xmlns:rdf="http://www.w3.org/1999/02/22-rdf-syntax-ns#"
   xmlns:svg="http://www.w3.org/2000/svg"
   xmlns="http://www.w3.org/2000/svg"
   version="1.1"
   id="svg2"
   viewBox="0 0 511.99997 512"
   height="512"
   width="512">
  <defs
     id="defs4">
    <clipPath
       clipPathUnits="userSpaceOnUse"
       id="clipPath4150">
      <path
         d="m 0,255.118 921.26,0 L 921.26,0 0,0 0,255.118 Z"
         id="path4152" />
    </clipPath>
    <clipPath
       clipPathUnits="userSpaceOnUse"
       id="clipPath4390">
      <path
         d="m 0,255.118 921.26,0 L 921.26,0 0,0 0,255.118 Z"
         id="path4392" />
    </clipPath>
    <clipPath
       clipPathUnits="userSpaceOnUse"
       id="clipPath4426">
      <path
         d="m 0,255.118 921.26,0 L 921.26,0 0,0 0,255.118 Z"
         id="path4428" />
    </clipPath>
    <clipPath
       clipPathUnits="userSpaceOnUse"
       id="clipPath4450">
      <path
         d="m 0,255.118 921.26,0 L 921.26,0 0,0 0,255.118 Z"
         id="path4452" />
    </clipPath>
    <clipPath
       id="clipPath4621"
       clipPathUnits="userSpaceOnUse">
      <rect
         transform="scale(1,-1)"
         y="-328.96194"
         x="5.0020628"
         height="438.39999"
         width="284.79999"
         id="rect4623"
         style="opacity:0.98000004;fill:none;fill-opacity:1;stroke:#000000;stroke-width:0.80000001;stroke-linecap:round;stroke-linejoin:miter;stroke-miterlimit:4;stroke-dasharray:none;stroke-opacity:1" />
    </clipPath>
  </defs>
  <metadata
     id="metadata7">
    <rdf:RDF>
      <cc:Work
         rdf:about="">
        <dc:format>image/svg+xml</dc:format>
        <dc:type
           rdf:resource="http://purl.org/dc/dcmitype/StillImage" />
        <dc:title></dc:title>
      </cc:Work>
    </rdf:RDF>
  </metadata>
  <g
     transform="translate(36.650832,-88.58137)"
     id="layer1">
    <g
       clip-path="url(#clipPath4621)"
       id="g4144"
       transform="matrix(1.9993647,0,0,-1.9993647,-104.07084,603.8616)">
      <g
         id="g4386">
        <g
           id="g4388"
           clip-path="url(#clipPath4390)">
          <g
             id="g4394"
             transform="translate(39.1338,77.0669)">
            <path
               d="m 0,0 c 23.645,-44.083 71.776,-68.162 120.839,-68.424 2.464,-0.013 8.369,3.702 3.181,3.73 C 76.803,-64.442 30.38,-40.162 7.728,2.07 6.507,4.346 -0.895,1.668 0,0"
               style="fill-opacity:1;fill-rule:nonzero;stroke:none"
               id="path4396" />
          </g>
          <g
             id="g4398"
             transform="translate(89.9736,78.1763)">
            <path
               d="m 0,0 c 6.89,-21.095 18.756,-40.453 36.505,-54.079 9.986,-7.667 22.878,-14.407 35.765,-14.616 3.412,-0.055 1.073,2.018 -1.059,2.053 -11.96,0.193 -23.865,7.713 -32.83,14.948 C 22.074,-38.534 11.284,-19.849 4.848,-0.144 4.415,1.183 -0.461,1.414 0,0"
               style="fill-opacity:1;fill-rule:nonzero;stroke:none"
               id="path4400" />
          </g>
          <g
             id="g4402"
             transform="translate(52.1143,57.8125)">
            <path
               d="m 0,0 c 32.467,-17.026 72.044,-19.283 107.936,-19.158 2.566,0.009 8.335,3.917 3.135,3.899 C 76.135,-15.381 37.818,-13.112 6.226,3.456 4.258,4.488 -2.899,1.521 0,0"
               style="fill-opacity:1;fill-rule:nonzero;stroke:none"
               id="path4404" />
          </g>
          <g
             id="g4406"
             transform="translate(276.8838,77.4956)">
            <path
               d="m 0,0 c -22.192,-41.374 -66.848,-64.945 -113.126,-65.192 -2.367,-0.013 -8.393,-3.62 -3.218,-3.592 49.993,0.267 99.906,25.066 124.005,69.997 C 8.479,2.738 1.131,2.11 0,0"
               style="fill-opacity:1;fill-rule:nonzero;stroke:none"
               id="path4408" />
          </g>
          <g
             id="g4410"
             transform="translate(266.1304,60.5269)">
            <path
               d="m 0,0 c -30.765,-16.134 -68.523,-18.01 -102.49,-17.892 -2.681,0.01 -8.303,-4.044 -3.092,-4.062 36.853,-0.129 77.001,2.523 110.291,19.981 0.98,0.515 2.407,2.069 0.745,2.763 C 3.744,1.504 1.54,0.808 0,0"
               style="fill-opacity:1;fill-rule:nonzero;stroke:none"
               id="path4412" />
          </g>
          <g
             id="g4414"
             transform="translate(162.5273,9.4814)">
            <path
               d="M 0,0 C 12.723,0.207 24.913,6.781 34.853,14.223 52.666,27.559 64.44,47.39 71.264,68.281 71.639,69.429 66.792,70.439 66.311,68.965 59.811,49.064 48.923,30.83 32.683,17.394 23.678,9.943 11.062,2.249 -1.059,2.053 -4.46,1.998 -2.15,-0.035 0,0"
               style="fill-opacity:1;fill-rule:nonzero;stroke:none"
               id="path4416" />
          </g>
          <g
             id="g4418"
             transform="translate(159.0586,78.4473)">
            <path
               d="m 0,0 c 0.154,-22.533 0.309,-45.065 0.463,-67.598 0.01,-1.526 4.961,-1.931 4.953,-0.683 C 5.262,-45.749 5.107,-23.216 4.953,-0.684 4.943,0.842 -0.008,1.248 0,0"
               style="fill-opacity:1;fill-rule:nonzero;stroke:none"
               id="path4420" />
          </g>
        </g>
      </g>
      <g
         id="g4422">
        <g
           id="g4424"
           clip-path="url(#clipPath4426)">
          <g
             id="g4430"
             transform="translate(92.6797,142.1992)">
            <path
               d="m 0,0 c -0.9,0.046 -1.802,0.093 -2.693,0.138 -8.259,0.355 -16.528,0.501 -25.003,0.424 -4.234,-0.047 -8.529,-0.14 -12.854,-0.411 -2.146,-0.146 -4.355,-0.318 -6.362,-0.704 -0.589,-0.129 -0.665,-0.143 -0.94,-0.244 -0.115,-0.045 -0.232,-0.105 -0.313,-0.201 -0.07,-0.102 -0.107,-0.225 -0.163,-0.338 -0.028,-0.058 -0.043,-0.117 -0.065,-0.176 l -0.088,-0.262 c -0.084,-0.226 -0.136,-0.493 -0.207,-0.739 -0.142,-0.493 -0.236,-1.03 -0.345,-1.553 -0.285,-1.486 -0.463,-3.051 -0.527,-4.627 -0.056,-1.568 -0.018,-3.19 0.269,-4.64 0.071,-0.347 0.158,-0.739 0.256,-0.985 0.056,-0.213 0.16,-0.404 0.278,-0.583 0.123,-0.182 0.298,-0.318 0.51,-0.382 0.103,-0.027 0.213,-0.066 0.31,-0.083 l 0.164,-0.032 c 0.083,-0.019 0.177,-0.032 0.273,-0.045 1.517,-0.219 3.244,-0.251 4.934,-0.273 3.409,-0.03 6.868,0.068 10.315,0.004 1.726,-0.035 3.448,-0.103 5.221,-0.336 0.448,-0.068 0.897,-0.14 1.363,-0.249 0.52,-0.115 1.168,-0.321 1.691,-0.585 0.508,-0.299 1.071,-0.61 1.328,-1.167 0.276,-0.493 0.432,-1.041 0.653,-1.556 l -0.36,0.931 -0.181,0.467 -0.274,0.439 c -0.442,0.552 -1.084,0.895 -1.739,1.167 -0.327,0.118 -0.7,0.236 -1.011,0.312 -0.278,0.06 -0.543,0.127 -0.807,0.172 -0.523,0.096 -1.035,0.165 -1.542,0.225 -2.019,0.216 -3.977,0.269 -5.929,0.3 -3.891,0.062 -7.79,-0.058 -11.532,0.129 -0.462,0.028 -0.925,0.057 -1.365,0.107 -0.225,0.02 -0.44,0.048 -0.648,0.081 -0.214,0.025 -0.44,0.073 -0.496,0.085 -0.197,0.051 -0.433,0.098 -0.596,0.246 -0.153,0.16 -0.26,0.351 -0.344,0.554 -0.046,0.143 -0.205,0.601 -0.268,0.987 -0.105,0.382 -0.132,0.84 -0.204,1.256 -0.079,0.881 -0.132,1.781 -0.117,2.698 0.016,1.827 0.184,3.687 0.5,5.476 0.094,0.437 0.169,0.89 0.281,1.311 l 0.163,0.636 0.158,0.493 c 0.075,0.18 0.121,0.397 0.266,0.536 0.163,0.125 0.364,0.182 0.556,0.236 l 0.457,0.106 0.641,0.125 c 0.441,0.075 0.89,0.142 1.347,0.201 0.915,0.119 1.852,0.207 2.793,0.281 1.883,0.149 3.788,0.241 5.692,0.306 3.809,0.13 7.623,0.154 11.412,0.132 7.58,-0.051 15.069,-0.295 22.378,-0.665 -2.964,-0.262 -6.499,-0.462 -10.609,-0.43 -4.944,0.1 -9.854,0.15 -14.724,0.113 -4.859,-0.047 -9.718,-0.141 -14.396,-0.532 -0.013,0.135 -0.038,0.4 -0.05,0.534 -0.83,-0.093 -1.654,-0.191 -2.451,-0.312 -0.777,-0.117 -1.613,-0.271 -2.206,-0.429 -0.177,-0.061 -0.404,-0.108 -0.44,-0.319 -0.018,-0.045 -0.034,-0.089 -0.044,-0.131 l -0.108,-0.35 c -0.084,-0.359 -0.182,-0.708 -0.257,-1.08 -0.592,-2.975 -0.809,-6.32 -0.458,-9.185 0.043,-0.358 0.098,-0.7 0.176,-1.003 0.052,-0.327 0.186,-0.633 0.181,-0.669 0.065,-0.177 0.187,-0.353 0.386,-0.39 0.051,-0.018 0.082,-0.023 0.117,-0.031 0.117,-0.031 0.318,-0.053 0.482,-0.079 0.342,-0.051 0.72,-0.088 1.102,-0.12 0.761,-0.066 1.569,-0.096 2.374,-0.125 3.251,-0.095 6.597,-0.043 9.984,-0.109 1.701,-0.038 3.405,-0.083 5.18,-0.251 0.885,-0.078 1.791,-0.195 2.766,-0.404 0.228,-0.05 0.506,-0.107 0.871,-0.224 0.341,-0.104 0.673,-0.221 0.988,-0.376 0.631,-0.289 1.229,-0.69 1.632,-1.249 l 0.138,-0.22 c 0.032,-0.029 0.025,-0.092 0.09,-0.092 l 0.045,-0.113 0.18,-0.452 0.36,-0.904 0.179,-0.449 0.096,-0.342 0.191,-0.683 c 0.141,-0.443 0.213,-0.945 0.305,-1.427 0.108,-0.475 0.139,-0.99 0.167,-1.504 0.133,-2.053 -0.361,-4.231 -1.317,-6.062 l -0.81,-1.279 c -0.172,-0.236 -0.312,-0.524 -0.571,-0.766 -0.236,-0.265 -0.479,-0.522 -0.78,-0.715 -0.558,-0.421 -1.282,-0.716 -1.819,-0.887 -0.552,-0.168 -1.077,-0.278 -1.578,-0.353 -1.999,-0.283 -3.779,-0.218 -5.548,-0.144 -3.508,0.17 -6.93,0.573 -10.195,0.613 0.922,-0.11 0.367,-0.198 0.172,-0.274 -0.063,10e-4 -0.123,0.002 -0.182,0.004 0.059,-0.002 0.119,-0.003 0.182,-0.004 -0.169,-0.076 -0.084,-0.119 1.554,-0.224 -1.638,0.105 -1.723,0.148 -1.554,0.224 3.203,-0.122 6.557,-0.555 10.031,-0.75 1.753,-0.086 3.522,-0.158 5.543,0.112 0.506,0.071 1.046,0.183 1.607,0.341 0.543,0.165 1.304,0.463 1.919,0.891 0.312,0.213 0.609,0.444 0.85,0.736 0.282,0.277 0.469,0.532 0.651,0.816 l 0.838,1.313 c 0.992,1.843 1.554,4.058 1.46,6.171 -0.031,1.06 -0.215,2.05 -0.436,3.003 -0.133,0.466 -0.245,0.898 -0.402,1.389 l -0.769,1.887 c -0.705,1.281 -2.198,1.954 -3.594,2.295 -1.054,0.257 -1.927,0.352 -2.834,0.451 -1.776,0.17 -3.471,0.222 -5.15,0.25 -3.348,0.053 -6.645,-0.014 -9.85,0.048 -1.573,0.035 -3.225,0.096 -4.469,0.315 -0.098,0.018 -0.234,0.064 -0.282,0.176 -0.033,0.069 -0.033,0.066 -0.072,0.213 -0.093,0.201 -0.134,0.57 -0.209,0.85 -0.234,1.289 -0.279,2.827 -0.227,4.335 0.056,1.518 0.215,3.067 0.49,4.541 0.145,0.727 0.304,1.458 0.51,2.086 0.061,0.179 0.069,0.202 0.17,0.24 l 0.247,0.054 c 0.319,0.074 0.684,0.14 1.054,0.198 0.744,0.119 1.534,0.213 2.335,0.294 -1.229,-0.131 -2.494,-0.292 -3.492,-0.53 -0.123,-0.027 -0.141,-0.028 -0.205,-0.07 -0.02,-0.024 -0.028,-0.055 -0.043,-0.082 l -0.109,-0.329 c -0.578,-2.114 -0.875,-4.622 -0.903,-6.978 -0.021,-1.183 0.035,-2.367 0.203,-3.405 0.029,-0.277 0.094,-0.497 0.143,-0.734 0.029,-0.109 0.044,-0.254 0.082,-0.331 0.035,-0.094 0.069,-0.197 0.063,-0.189 0.019,-0.078 0.056,-0.141 0.116,-0.185 0.031,-0.019 0.067,-0.03 0.102,-0.04 l 0.042,-0.008 c 0.098,-0.024 0.242,-0.038 0.367,-0.057 0.51,-0.076 1.11,-0.118 1.704,-0.156 1.208,-0.067 2.474,-0.086 3.749,-0.093 l 7.811,0.012 c 1.324,-0.01 2.66,-0.035 4.029,-0.108 1.377,-0.08 2.751,-0.173 4.338,-0.507 0.334,-0.059 1.061,-0.261 1.59,-0.473 0.276,-0.12 0.549,-0.249 0.816,-0.386 0.245,-0.168 0.496,-0.329 0.735,-0.505 0.981,-0.789 1.206,-1.916 1.661,-2.911 0.175,-0.46 0.23,-0.753 0.348,-1.14 0.112,-0.355 0.201,-0.734 0.269,-1.134 0.069,-0.395 0.16,-0.776 0.204,-1.185 l 0.087,-1.251 c 0.021,-1.678 -0.252,-3.485 -0.975,-5.019 -0.177,-0.382 -0.324,-0.799 -0.538,-1.146 l -0.654,-1.035 c -0.094,-0.149 -0.259,-0.395 -0.414,-0.613 -0.131,-0.218 -0.398,-0.431 -0.588,-0.659 -0.427,-0.434 -0.949,-0.773 -1.498,-1.042 -0.567,-0.286 -1.055,-0.43 -1.489,-0.55 -0.449,-0.12 -0.872,-0.202 -1.274,-0.26 -0.815,-0.123 -1.57,-0.171 -2.303,-0.192 -1.461,-0.038 -2.837,0.028 -4.188,0.117 -2.692,0.182 -5.291,0.478 -7.797,0.64 -1.246,0.079 -2.475,0.126 -3.579,0.075 -0.526,-0.037 -1.073,-0.08 -1.429,-0.174 -0.102,-0.012 -0.188,-0.055 -0.212,-0.057 -0.012,-10e-4 -0.027,-0.005 -0.042,-0.013 -0.029,-0.013 -0.057,-0.031 -0.078,-0.054 -0.024,-0.024 -0.041,-0.054 -0.043,-0.064 -0.08,-0.144 -0.169,-0.327 -0.249,-0.537 -0.165,-0.415 -0.311,-0.909 -0.431,-1.431 -0.234,-1.054 -0.371,-2.21 -0.42,-3.376 -0.094,-2.302 0.126,-4.808 0.782,-6.649 0.078,-0.224 0.167,-0.43 0.254,-0.597 0.043,-0.087 0.085,-0.175 0.127,-0.232 0.048,-0.079 0.059,-0.107 0.066,-0.11 0.035,-0.045 0.08,-0.086 0.14,-0.096 -0.021,0.014 0.181,-0.048 0.499,-0.085 0.288,-0.038 0.552,-0.087 0.87,-0.115 0.607,-0.07 1.237,-0.127 1.878,-0.178 5.155,-0.382 10.522,-0.512 15.883,-0.639 1.831,-0.032 5.501,-0.097 7.336,-0.129 7.337,-0.507 14.696,-0.681 22.043,-0.684 -1.836,-0.665 5.523,-2.047 -9.2,-1.731 0,-0.135 -0.002,-0.405 -0.003,-0.539 14.721,-0.723 20.274,-2.57 5.517,-3.125 -8.297,-0.247 -17.974,-0.193 -28.14,0.088 -2.542,0.071 -5.115,0.161 -7.714,0.281 -2.61,0.13 -5.196,0.249 -7.935,0.54 -0.347,0.039 -0.679,0.069 -1.054,0.128 -0.376,0.058 -0.699,0.09 -1.155,0.191 -0.565,0.121 -1.179,0.317 -1.741,0.559 -0.538,0.303 -1.05,0.662 -1.475,1.115 -0.427,0.419 -0.838,1.005 -1.073,1.41 -0.255,0.424 -0.456,0.836 -0.622,1.235 -0.338,0.8 -0.58,1.569 -0.759,2.316 -0.7,2.985 -0.802,5.783 -0.603,8.632 0.207,2.084 0.468,4.136 1.618,6.529 0.131,0.252 0.412,0.752 0.674,1.09 0.253,0.378 0.599,0.67 0.908,0.997 0.693,0.57 1.512,0.998 2.384,1.246 1.39,0.401 2.487,0.459 3.556,0.508 2.113,0.066 4.014,-0.083 5.893,-0.228 l 5.459,-0.455 c 1.752,-0.121 3.51,-0.202 4.948,-0.066 0.356,0.031 0.685,0.081 0.942,0.14 0.278,0.058 0.462,0.137 0.407,0.109 0.013,0.02 -0.022,-0.049 0.033,0.046 l 0.205,0.324 0.275,0.408 c 0.599,1.111 0.855,2.164 0.766,3.437 -0.034,0.634 -0.176,1.325 -0.383,2.063 l -0.136,0.512 c -0.037,0.136 -0.015,0.078 -0.038,0.119 -0.009,0.012 -0.02,0.023 -0.034,0.033 -0.028,0.009 0.034,0.002 -0.069,0.025 l -0.331,0.079 c -0.48,0.103 -1.024,0.188 -1.596,0.253 -1.145,0.131 -2.372,0.202 -3.618,0.249 -2.498,0.093 -5.087,0.084 -7.721,0.102 -1.319,0.009 -2.652,0.02 -4.016,0.064 -1.374,0.051 -2.742,0.107 -4.319,0.347 l -0.32,0.06 -0.468,0.098 c -0.317,0.068 -0.597,0.165 -0.887,0.263 -0.57,0.204 -1.084,0.523 -1.559,0.886 -0.397,0.451 -0.812,0.888 -1.084,1.437 -0.142,0.266 -0.334,0.506 -0.435,0.794 -0.107,0.266 -0.227,0.611 -0.287,0.798 -0.512,1.71 -0.618,3.178 -0.69,4.652 -0.061,1.466 -0.004,2.887 0.117,4.307 0.118,1.421 0.309,2.827 0.621,4.261 0.066,0.355 0.163,0.72 0.258,1.085 0.095,0.386 0.177,0.669 0.348,1.174 0.182,0.582 0.428,1.114 0.709,1.621 0.236,0.535 0.67,0.95 1.158,1.255 0.48,0.322 1.032,0.54 1.594,0.721 0.272,0.076 0.595,0.186 0.826,0.233 l 0.567,0.125 c 0.74,0.151 1.436,0.248 2.131,0.341 5.472,0.621 10.639,0.64 15.752,0.643 7.412,0.058 20.334,0.341 24.019,-0.139 2.647,-0.237 2.746,-0.529 2.336,-0.841 -6.059,0.132 -12.11,0.207 -18.145,0.2 C -27.794,4.085 -33.808,4.019 -39.826,3.677 -41.674,3.575 -43.523,3.448 -45.404,3.215 -46.36,3.092 -47.266,2.964 -48.321,2.709 -48.975,2.527 -49.635,2.326 -50.2,1.97 -50.485,1.797 -50.744,1.577 -50.941,1.308 -51.1,1.017 -51.252,0.716 -51.394,0.412 c -0.146,-0.301 -0.249,-0.637 -0.358,-0.961 -0.082,-0.249 -0.164,-0.492 -0.22,-0.731 -0.129,-0.481 -0.254,-0.962 -0.344,-1.437 -0.207,-0.956 -0.346,-1.905 -0.463,-2.859 -0.222,-1.906 -0.322,-3.816 -0.226,-5.776 0.07,-0.987 0.141,-1.97 0.383,-3.017 0.096,-0.511 0.259,-1.032 0.539,-1.734 l 0.52,-0.918 c 0.201,-0.287 0.449,-0.539 0.671,-0.81 0.548,-0.444 1.201,-0.714 1.896,-0.897 l 0.54,-0.118 c 0.145,-0.03 0.273,-0.055 0.4,-0.072 0.252,-0.036 0.516,-0.083 0.759,-0.107 0.995,-0.121 1.941,-0.175 2.883,-0.219 3.751,-0.155 7.401,-0.099 11.005,-0.213 -3.523,0.138 -7.119,0.105 -10.825,0.262 -0.929,0.04 -1.869,0.1 -2.845,0.21 -0.242,0.025 -0.489,0.056 -0.744,0.098 -0.274,0.039 -0.45,0.067 -0.835,0.151 -0.715,0.144 -1.357,0.382 -1.93,0.772 -0.555,0.406 -0.953,0.997 -1.271,1.607 -0.189,0.291 -0.297,0.624 -0.409,0.952 -0.091,0.279 -0.187,0.549 -0.232,0.803 -0.254,1.045 -0.35,2.032 -0.418,3.017 -0.118,1.962 -0.036,3.877 0.175,5.792 0.114,0.958 0.246,1.913 0.443,2.874 0.094,0.479 0.198,0.96 0.332,1.446 0.063,0.242 0.12,0.483 0.207,0.731 0.069,0.215 0.201,0.624 0.315,0.92 0.295,0.593 0.503,1.285 1.101,1.643 0.547,0.383 1.194,0.624 1.854,0.799 0.641,0.177 1.04,0.244 1.555,0.339 0.485,0.084 0.965,0.155 1.443,0.218 1.907,0.246 3.786,0.386 5.667,0.5 6.006,0.309 11.973,0.334 17.943,0.307 5.968,-0.036 11.929,-0.157 17.886,-0.334 -0.44,-0.268 -0.864,-0.548 -0.142,-0.827 0,0 3.68,-0.074 5.521,-0.112 C 8.731,1.849 6.848,0.946 3.17,0.373 2.214,0.26 1.14,0.134 0,0"
               style="fill-opacity:1;fill-rule:nonzero;stroke:none"
               id="path4432" />
          </g>
          <g
             id="g4434"
             transform="translate(206.459,139.9346)">
            <path
               d="m 0,0 c -0.146,-1.002 -0.292,-2.006 -0.436,-2.997 -1.272,-9.267 -2.529,-18.429 -3.823,-27.86 -0.678,-4.733 -1.365,-9.518 -2.259,-14.428 -0.232,-1.244 -0.461,-2.434 -0.791,-3.778 -0.247,-0.93 -0.485,-1.923 -1.129,-2.591 -0.662,-0.664 -1.647,-0.913 -2.596,-1.128 -0.259,-0.063 -0.453,-0.091 -0.61,-0.119 l -0.506,-0.081 c -0.337,-0.053 -0.669,-0.094 -1.001,-0.133 -0.663,-0.075 -1.322,-0.135 -1.981,-0.177 -1.319,-0.088 -2.638,-0.126 -3.968,-0.119 -1.861,0.025 -3.756,0.119 -5.696,0.365 -0.971,0.122 -1.953,0.283 -2.956,0.53 -1.005,0.259 -2.028,0.547 -3.122,1.207 -0.589,0.353 -1.166,0.851 -1.51,1.451 -0.181,0.304 -0.339,0.591 -0.492,0.882 -0.109,0.264 -0.194,0.514 -0.291,0.772 -0.206,0.522 -0.342,1.016 -0.469,1.506 -0.141,0.495 -0.268,0.987 -0.365,1.469 -0.449,1.949 -0.758,3.872 -1.078,5.798 -0.615,3.842 -1.137,7.672 -1.769,11.376 -0.323,1.843 -0.67,3.667 -1.121,5.355 l -0.379,1.189 -0.216,0.474 c -0.064,0.167 -0.135,0.322 -0.231,0.412 -0.255,0.477 -0.862,0.854 -1.44,1.216 0.738,-0.429 1.272,-0.9 1.589,-1.497 l 0.24,-0.553 c 0.082,-0.187 0.142,-0.45 0.216,-0.67 0.15,-0.448 0.274,-0.936 0.387,-1.441 0.464,-1.995 0.818,-4.098 1.138,-6.215 0.659,-4.238 1.184,-8.544 1.967,-12.899 0.189,-1.087 0.426,-2.189 0.676,-3.295 0.312,-1.134 0.534,-2.203 1.224,-3.531 0.349,-0.724 0.934,-1.383 1.641,-1.837 0.681,-0.455 1.272,-0.674 1.887,-0.908 1.206,-0.414 2.365,-0.645 3.514,-0.823 2.296,-0.34 4.546,-0.442 6.796,-0.441 2.253,0.014 4.477,0.12 6.78,0.454 0.3,0.042 0.555,0.089 0.907,0.153 0.408,0.094 0.841,0.175 1.241,0.311 0.804,0.247 1.588,0.628 2.002,1.355 0.428,0.67 0.64,1.609 0.835,2.341 0.14,0.563 0.255,1.107 0.372,1.654 0.448,2.176 0.816,4.317 1.174,6.459 0.71,4.28 1.349,8.533 1.978,12.758 1.227,8.403 2.441,16.716 3.638,24.917 -0.074,-3.339 -0.294,-7.315 -0.862,-11.908 -0.769,-5.524 -1.533,-11.006 -2.293,-16.457 -0.813,-5.473 -1.573,-10.85 -2.689,-16.384 -0.134,0.028 -0.394,0.082 -0.526,0.109 l -0.149,-0.747 -0.19,-0.844 c -0.213,-0.814 -0.423,-1.662 -0.875,-2.317 -0.111,-0.167 -0.245,-0.307 -0.379,-0.46 -0.096,-0.189 -0.286,-0.283 -0.444,-0.402 -0.338,-0.216 -0.707,-0.392 -1.091,-0.544 -0.396,-0.134 -0.796,-0.26 -1.213,-0.347 -0.202,-0.05 -0.428,-0.104 -0.576,-0.129 l -0.4,-0.077 c -2.096,-0.362 -4.066,-0.5 -6.065,-0.568 -1.99,-0.064 -3.976,-0.024 -5.986,0.143 -2.026,0.207 -4.024,0.432 -6.281,1.302 -0.582,0.239 -1.13,0.493 -1.846,1.018 -0.688,0.488 -1.195,1.181 -1.553,1.872 l -0.265,0.497 c -0.069,0.15 -0.106,0.273 -0.16,0.411 l -0.294,0.808 c -0.204,0.548 -0.291,1.013 -0.44,1.523 -0.492,1.972 -0.832,3.864 -1.127,5.744 -0.602,3.758 -1.06,7.468 -1.612,11.121 -0.267,1.832 -0.578,3.629 -0.936,5.377 l -0.299,1.27 c -0.104,0.416 -0.233,0.775 -0.344,1.168 -0.054,0.218 -0.127,0.313 -0.185,0.464 -0.064,0.129 -0.11,0.306 -0.178,0.403 -0.142,0.156 -0.218,0.351 -0.457,0.518 -0.773,0.753 -2.356,1.274 -3.898,1.461 -1.565,0.194 -3.243,0.113 -4.698,-0.289 -0.33,-0.134 -0.73,-0.202 -1.009,-0.371 l -0.459,-0.212 -0.362,-0.25 c -0.143,-0.074 -0.221,-0.165 -0.295,-0.25 -0.062,-0.085 -0.216,-0.152 -0.221,-0.237 -0.037,-0.079 -0.084,-0.148 -0.147,-0.213 -0.048,-0.137 -0.104,-0.237 -0.159,-0.43 -0.227,-0.693 -0.42,-1.586 -0.588,-2.467 -0.17,-0.888 -0.319,-1.808 -0.462,-2.736 -0.569,-3.719 -1.036,-7.554 -1.707,-11.452 0.285,1.092 0.266,0.417 0.307,0.17 -0.014,-0.077 -0.028,-0.15 -0.042,-0.221 0.014,0.071 0.028,0.144 0.042,0.221 0.032,-0.223 0.129,-0.103 0.475,1.831 -0.346,-1.934 -0.443,-2.054 -0.475,-1.831 0.719,3.829 1.224,7.603 1.809,11.25 0.147,0.909 0.299,1.81 0.469,2.676 0.168,0.858 0.36,1.728 0.574,2.38 0.052,0.181 0.102,0.281 0.143,0.392 0.048,0.077 0.088,0.089 0.109,0.15 -0.005,0.054 0.09,0.111 0.155,0.174 0.079,0.06 0.093,0.143 0.227,0.204 0.109,0.067 0.213,0.138 0.315,0.214 0.108,0.075 0.271,0.127 0.402,0.196 0.252,0.15 0.603,0.234 0.919,0.348 1.333,0.413 2.948,0.498 4.437,0.343 1.475,-0.154 2.968,-0.622 3.751,-1.253 0.16,-0.159 0.359,-0.297 0.412,-0.434 0.116,-0.063 0.205,-0.412 0.326,-0.633 0.231,-0.641 0.461,-1.436 0.648,-2.274 0.383,-1.669 0.692,-3.442 0.974,-5.23 0.543,-3.637 1.086,-7.274 1.63,-10.92 0.304,-1.854 0.609,-3.708 1.056,-5.636 0.248,-0.983 0.463,-1.934 0.903,-3.053 0.134,-0.474 0.57,-1.251 1.015,-1.94 0.509,-0.663 1.256,-1.25 1.913,-1.617 1.236,-0.677 2.311,-0.968 3.368,-1.231 1.051,-0.245 2.068,-0.409 3.072,-0.527 2.007,-0.233 3.974,-0.318 5.944,-0.313 1.974,0.007 3.934,0.1 5.97,0.337 0.512,0.063 1.025,0.132 1.567,0.231 0.243,0.034 0.793,0.169 1.198,0.262 0.421,0.132 0.868,0.233 1.247,0.435 0.199,0.089 0.395,0.181 0.573,0.298 0.189,0.1 0.361,0.225 0.52,0.367 0.266,0.341 0.57,0.623 0.788,0.992 0.407,0.731 0.643,1.721 0.841,2.473 -0.052,-0.234 -0.169,-0.641 -0.255,-0.96 -0.09,-0.34 -0.219,-0.662 -0.334,-0.988 -0.234,-0.662 -0.688,-1.121 -1.142,-1.611 -0.535,-0.385 -1.128,-0.707 -1.805,-0.889 -0.324,-0.117 -0.671,-0.182 -1.011,-0.265 -0.174,-0.041 -0.343,-0.081 -0.483,-0.104 l -0.314,-0.057 c -1.652,-0.279 -3.19,-0.404 -4.743,-0.487 -3.098,-0.146 -6.155,-0.105 -9.337,0.313 -1.607,0.247 -3.207,0.506 -5.076,1.332 -0.246,0.124 -0.466,0.214 -0.727,0.376 -0.236,0.148 -0.567,0.336 -0.819,0.555 -0.54,0.421 -1.025,0.946 -1.339,1.52 -0.176,0.294 -0.317,0.552 -0.461,0.827 -0.14,0.272 -0.179,0.443 -0.272,0.67 -0.147,0.418 -0.344,0.886 -0.438,1.266 -0.892,3.157 -1.319,6.043 -1.794,8.97 -0.435,2.877 -0.87,5.753 -1.305,8.627 -0.225,1.416 -0.46,2.824 -0.73,4.19 -0.139,0.678 -0.27,1.368 -0.437,1.999 -0.147,0.675 -0.335,1.239 -0.512,1.805 -0.091,0.26 -0.18,0.389 -0.252,0.598 -0.081,0.174 -0.164,0.184 -0.207,0.315 -0.135,0.094 -0.238,0.207 -0.377,0.323 -0.191,0.098 -0.342,0.222 -0.546,0.328 -0.826,0.43 -1.97,0.72 -3.131,0.817 -1.164,0.106 -2.376,0.052 -3.477,-0.169 -1.088,-0.202 -2.107,-0.659 -2.495,-1.055 -0.043,-0.047 -0.091,-0.088 -0.144,-0.125 -0.035,-0.039 -0.02,-0.073 -0.046,-0.098 -0.043,-0.019 -0.111,-0.148 -0.188,-0.399 -0.16,-0.475 -0.32,-1.121 -0.455,-1.776 -0.279,-1.317 -0.508,-2.734 -0.733,-4.155 -0.448,-2.852 -0.865,-5.769 -1.382,-8.711 -0.529,-2.948 -1.104,-5.913 -2.098,-8.98 -0.516,-1.535 -1.111,-3.108 -2.269,-4.792 -0.324,-0.428 -0.663,-0.854 -1.13,-1.281 -0.434,-0.403 -0.82,-0.641 -1.242,-0.957 -0.835,-0.543 -1.709,-0.995 -2.575,-1.301 -3.497,-1.279 -6.871,-1.301 -10.16,-0.981 -1.647,0.195 -3.276,0.515 -4.934,1.04 -0.411,0.122 -0.832,0.275 -1.258,0.453 -0.417,0.153 -0.853,0.365 -1.304,0.601 -0.528,0.266 -1.191,0.714 -1.681,1.175 -0.514,0.482 -0.869,1.105 -1.145,1.761 -0.074,0.163 -0.132,0.324 -0.194,0.488 l -0.123,0.339 -0.202,0.634 c -0.124,0.41 -0.232,0.809 -0.335,1.203 -0.2,0.784 -0.371,1.55 -0.535,2.313 -0.317,1.521 -0.592,3.026 -0.849,4.531 -0.51,3.008 -0.949,6.01 -1.363,9.024 -0.287,2.053 -0.814,6.163 -1.062,8.217 -0.603,8.264 -1.353,16.489 -2.175,24.702 0.892,-1.98 1.364,6.357 2.81,-10.081 0.134,0.015 0.403,0.043 0.536,0.058 -0.545,8.235 -0.441,13.942 0.035,15.533 0.483,1.594 1.301,-0.906 2.407,-9.064 1.227,-9.171 2.381,-19.916 3.923,-31.057 0.392,-2.781 0.811,-5.588 1.311,-8.356 0.251,-1.378 0.52,-2.76 0.839,-4.057 0.157,-0.64 0.333,-1.282 0.509,-1.774 0.043,-0.132 0.048,-0.119 0.102,-0.16 l 0.491,-0.245 0.784,-0.307 0.855,-0.272 0.901,-0.226 c 1.222,-0.273 2.494,-0.438 3.753,-0.506 2.489,-0.109 5.058,0.221 6.716,1.16 0.143,0.086 0.319,0.149 0.438,0.247 0.12,0.097 0.242,0.189 0.367,0.278 0.157,0.096 0.19,0.16 0.246,0.212 0.059,0.044 0.141,0.192 0.221,0.275 0.337,0.467 0.703,1.232 1.009,2.041 0.624,1.642 1.1,3.537 1.507,5.457 0.815,3.865 1.365,7.898 2.003,12.005 0.337,2.078 0.624,4.101 1.241,6.438 0.165,0.581 0.346,1.241 0.776,2.07 0.247,0.428 0.518,0.852 0.807,1.245 0.303,0.326 0.621,0.643 0.948,0.946 1.306,1.068 2.664,1.679 3.941,2.045 2.58,0.751 5.041,0.788 7.543,0.443 1.251,-0.203 2.507,-0.507 3.784,-1.091 1.252,-0.532 2.603,-1.404 3.688,-2.81 0.183,-0.249 0.36,-0.504 0.528,-0.762 0.144,-0.247 0.23,-0.475 0.343,-0.717 l 0.309,-0.72 c 0.101,-0.242 0.135,-0.415 0.205,-0.626 0.12,-0.403 0.252,-0.818 0.356,-1.212 l 0.262,-1.141 c 0.338,-1.515 0.579,-2.973 0.817,-4.438 0.458,-2.918 0.837,-5.817 1.248,-8.704 0.412,-2.876 0.832,-5.775 1.425,-8.479 0.137,-0.691 0.328,-1.296 0.494,-1.915 l 0.28,-0.788 c 0.102,-0.194 0.124,-0.234 0.142,-0.31 0.043,-0.036 0.058,-0.085 0.124,-0.11 0.042,-0.034 0.125,-0.082 0.227,-0.127 0.085,-0.048 0.188,-0.096 0.312,-0.141 0.463,-0.187 1.039,-0.364 1.662,-0.493 2.513,-0.533 5.397,-0.668 8.19,-0.633 1.404,0.023 2.811,0.095 4.168,0.238 0.337,0.037 0.676,0.073 0.999,0.122 l 0.792,0.125 c 0.128,0.032 0.314,0.025 0.388,0.159 0.033,0.065 0.056,0.134 0.08,0.204 l 0.043,0.151 0.121,0.492 c 0.157,0.664 0.302,1.357 0.442,2.052 0.28,1.391 0.539,2.802 0.788,4.212 0.477,2.826 0.95,5.634 1.421,8.423 1.288,8.121 2.639,22.479 3.522,26.521 0.543,2.914 0.841,2.997 1.107,2.51 -0.822,-6.721 -1.659,-13.43 -2.543,-20.105 -0.892,-6.67 -1.793,-13.328 -2.919,-19.861 -0.181,-0.998 -0.368,-1.994 -0.574,-2.973 -0.105,-0.488 -0.21,-0.977 -0.327,-1.446 -0.094,-0.373 -0.142,-0.549 -0.244,-0.821 -0.058,-0.284 -0.356,-0.38 -0.603,-0.445 -0.128,-0.032 -0.256,-0.065 -0.385,-0.088 l -0.566,-0.1 c -0.939,-0.149 -1.923,-0.244 -2.907,-0.312 -1.973,-0.134 -3.973,-0.154 -5.947,-0.062 -1.968,0.097 -3.948,0.294 -5.733,0.743 -0.437,0.118 -0.867,0.244 -1.246,0.398 -0.38,0.137 -0.74,0.351 -0.915,0.47 -0.199,0.132 -0.305,0.323 -0.422,0.581 -0.074,0.095 -0.146,0.308 -0.215,0.517 l -0.214,0.608 c -0.527,1.77 -0.865,3.782 -1.193,5.755 -0.631,3.988 -1.104,8.051 -1.699,12.146 0.556,-4.01 1.004,-8.013 1.614,-11.967 0.316,-1.959 0.638,-3.961 1.153,-5.75 0.13,-0.429 0.282,-0.84 0.421,-1.219 0.164,-0.276 0.224,-0.498 0.424,-0.652 0.093,-0.088 0.18,-0.131 0.327,-0.231 0.166,-0.08 0.314,-0.174 0.51,-0.248 0.368,-0.161 0.79,-0.299 1.228,-0.417 1.769,-0.475 3.761,-0.681 5.739,-0.787 1.986,-0.1 4.004,-0.077 6.001,0.055 0.997,0.068 1.993,0.166 2.95,0.314 l 0.632,0.11 c 0.133,0.026 0.266,0.055 0.398,0.09 0.242,0.08 0.58,0.13 0.651,0.425 0.104,0.264 0.164,0.495 0.244,0.81 0.118,0.476 0.223,0.973 0.327,1.469 0.206,0.996 0.392,2.01 0.571,3.027 1.155,6.513 2.09,13.116 3.018,19.706 0.918,6.596 1.793,13.202 2.65,19.808 0.217,-0.517 0.447,-1.016 0.807,-0.241 0,0 0.481,4.092 0.722,6.138 1.613,8.115 2.314,5.961 2.517,1.79 C -0.023,2.501 -0.012,1.292 0,0"
               style="fill-opacity:1;fill-rule:nonzero;stroke:none"
               id="path4436" />
          </g>
          <g
             id="g4438"
             transform="translate(230.7451,92.9468)">
            <path
               d="m 0,0 c 0.945,-0.062 1.892,-0.123 2.826,-0.184 8.669,-0.5 17.348,-0.818 26.255,-0.973 4.45,-0.069 8.968,-0.113 13.525,-0.002 1.138,0.031 2.278,0.074 3.4,0.147 l 0.835,0.062 0.74,0.072 c 0.258,0.029 0.51,0.056 0.757,0.14 0.138,0.03 0.2,0.157 0.242,0.277 0.049,0.119 0.088,0.242 0.124,0.367 l 0.055,0.198 0.064,0.264 0.172,0.819 c 0.219,1.107 0.387,2.262 0.531,3.423 0.209,1.627 0.352,3.301 0.409,4.985 0.054,1.678 0.032,3.394 -0.196,4.987 -0.053,0.395 -0.133,0.788 -0.222,1.126 -0.06,0.244 -0.13,0.442 -0.239,0.648 -0.181,0.457 -0.719,0.567 -1.139,0.605 -0.69,0.073 -1.611,0.083 -2.458,0.065 -0.87,-0.021 -1.756,-0.069 -2.643,-0.127 -3.563,-0.243 -7.164,-0.649 -10.753,-0.926 -1.801,-0.134 -3.587,-0.255 -5.447,-0.219 -0.235,0.007 -0.464,0.008 -0.707,0.027 -0.265,0.024 -0.423,0.012 -0.783,0.069 -0.638,0.085 -1.285,0.181 -1.855,0.442 -1.211,0.478 -1.743,1.745 -2.164,2.923 0.11,-0.365 0.245,-0.721 0.416,-1.048 l 0.241,-0.503 0.311,-0.453 c 0.421,-0.606 1.1,-0.967 1.813,-1.157 1.629,-0.385 2.575,-0.333 3.654,-0.356 2.111,0.006 4.147,0.155 6.183,0.31 4.051,0.306 8.12,0.773 12.032,0.847 0.485,0.006 0.962,0 1.422,-0.02 0.221,-0.018 0.464,-0.019 0.665,-0.049 0.111,-0.011 0.214,-0.024 0.331,-0.049 0.225,-0.042 0.456,-0.12 0.601,-0.306 0.143,-0.18 0.235,-0.396 0.298,-0.616 0.02,-0.053 0.03,-0.112 0.051,-0.191 l 0.074,-0.301 c 0.038,-0.217 0.091,-0.42 0.119,-0.649 0.069,-0.444 0.124,-0.905 0.158,-1.378 0.075,-0.942 0.098,-1.915 0.091,-2.893 C 49.771,8.446 49.632,6.461 49.404,4.501 49.29,3.521 49.152,2.545 48.982,1.592 48.901,1.131 48.793,0.609 48.707,0.23 48.649,-0.005 48.596,-0.194 48.52,-0.394 c -0.042,-0.229 -0.268,-0.315 -0.475,-0.343 -0.103,-0.021 -0.206,-0.036 -0.31,-0.05 l -0.421,-0.045 c -0.94,-0.095 -1.929,-0.15 -2.918,-0.19 -1.983,-0.08 -3.99,-0.101 -5.994,-0.103 -4.011,10e-4 -8.019,0.087 -12,0.208 -7.963,0.249 -15.822,0.646 -23.495,1.145 3.117,0.211 6.835,0.343 11.153,0.226 5.193,-0.204 10.353,-0.37 15.474,-0.469 5.111,-0.087 10.234,-0.153 15.169,0.059 0.007,-0.135 0.022,-0.401 0.029,-0.535 0.873,0.061 1.741,0.133 2.553,0.233 l 0.191,0.026 0.083,0.014 0.151,0.033 c 0.09,0.032 0.218,0.038 0.253,0.146 0.039,0.095 0.063,0.195 0.086,0.293 l 0.167,0.837 c 0.149,0.809 0.273,1.649 0.379,2.492 0.4,3.365 0.611,6.869 0.335,10.026 -0.039,0.389 -0.089,0.764 -0.147,1.124 l -0.102,0.511 -0.078,0.312 c -0.052,0.184 -0.147,0.403 -0.357,0.45 -0.048,0.018 -0.099,0.025 -0.148,0.037 l -0.212,0.028 C 47.528,16.1 47.15,16.121 46.75,16.126 45.953,16.139 45.122,16.124 44.275,16.085 40.881,15.932 37.394,15.586 33.87,15.328 32.102,15.2 30.327,15.079 28.482,15.049 c -0.929,-0.01 -1.855,-0.014 -2.886,0.081 -1.403,0.133 -3.013,0.49 -3.831,1.719 l -0.311,0.441 -0.243,0.494 c -0.169,0.324 -0.327,0.658 -0.437,1.026 l -0.146,0.453 c -0.046,0.133 -0.072,0.258 -0.104,0.385 l -0.178,0.759 c -0.196,0.997 -0.307,1.973 -0.367,2.945 -0.089,1.947 -0.024,3.869 0.407,5.878 0.098,0.499 0.248,1.013 0.41,1.527 0.033,0.127 0.097,0.264 0.145,0.394 l 0.224,0.534 c 0.153,0.364 0.345,0.665 0.539,0.979 0.723,1.317 2.375,1.778 3.714,2.005 2.129,0.277 3.946,0.177 5.805,0.095 3.672,-0.207 7.262,-0.61 10.833,-0.884 -1.004,0.174 -0.392,0.223 -0.174,0.288 0.07,-0.006 0.137,-0.013 0.201,-0.019 -0.064,0.006 -0.131,0.013 -0.201,0.019 0.195,0.059 0.092,0.124 -1.688,0.314 1.78,-0.19 1.883,-0.255 1.688,-0.314 -3.506,0.339 -7.035,0.776 -10.667,1.006 -1.841,0.095 -3.641,0.201 -5.792,-0.06 -1.378,-0.2 -3.132,-0.722 -3.975,-2.033 -0.212,-0.331 -0.42,-0.643 -0.596,-1.015 -0.173,-0.36 -0.347,-0.805 -0.433,-1.027 -0.163,-0.522 -0.335,-1.053 -0.433,-1.557 -0.456,-2.037 -0.532,-3.961 -0.456,-5.911 0.06,-0.976 0.143,-1.946 0.343,-2.952 0.085,-0.497 0.218,-1.012 0.369,-1.536 l 0.163,-0.496 c 0.069,-0.187 0.13,-0.382 0.217,-0.556 l 0.525,-1.036 c 0.425,-0.624 0.938,-1.199 1.612,-1.56 0.351,-0.146 0.689,-0.322 1.074,-0.397 l 0.563,-0.145 0.582,-0.084 0.561,-0.077 0.381,-0.027 c 0.258,-0.02 0.507,-0.033 0.744,-0.037 0.49,-0.02 0.952,-0.015 1.42,-0.015 1.839,0.032 3.601,0.149 5.345,0.285 3.479,0.269 6.91,0.627 10.253,0.816 0.834,0.046 1.66,0.079 2.453,0.082 0.402,0.007 0.782,-0.005 1.158,-0.017 l 0.535,-0.032 0.188,-0.024 c 0.125,-0.014 0.246,-0.082 0.284,-0.208 0.012,-0.028 0.022,-0.057 0.03,-0.087 l 0.051,-0.209 c 0.073,-0.298 0.132,-0.643 0.182,-1 0.191,-1.451 0.223,-3.095 0.172,-4.734 C 48.687,7.88 48.554,6.207 48.358,4.551 48.258,3.723 48.142,2.897 48.004,2.09 47.935,1.687 47.86,1.29 47.778,0.903 47.669,0.396 47.67,0.427 47.654,0.382 47.638,0.342 47.625,0.301 47.598,0.27 47.562,0.246 47.515,0.246 47.475,0.241 l -0.433,-0.038 -1.229,-0.095 0.961,0.074 0.641,0.062 c 0.064,0.01 0.133,0.003 0.18,0.048 0.035,0.077 0.036,0.063 0.079,0.24 0.132,0.586 0.244,1.216 0.347,1.847 0.4,2.544 0.627,5.203 0.664,7.771 0.013,1.281 -0.02,2.559 -0.159,3.722 -0.029,0.296 -0.078,0.566 -0.121,0.838 -0.043,0.24 -0.115,0.566 -0.15,0.673 -0.024,0.095 -0.043,0.16 -0.106,0.212 -0.061,0.056 -0.13,0.059 -0.228,0.071 -0.519,0.043 -1.12,0.063 -1.749,0.053 -1.253,-0.012 -2.575,-0.092 -3.904,-0.188 -2.665,-0.197 -5.376,-0.471 -8.124,-0.703 -1.376,-0.116 -2.762,-0.224 -4.181,-0.295 -1.433,-0.063 -2.843,-0.119 -4.51,0.015 -1.263,0.15 -2.566,0.391 -3.502,1.21 -0.121,0.096 -0.197,0.243 -0.355,0.297 l -0.276,0.371 c -0.183,0.249 -0.381,0.486 -0.506,0.782 l -0.425,0.846 c -0.115,0.284 -0.241,0.654 -0.312,0.883 -0.52,1.692 -0.679,3.215 -0.762,4.77 -0.065,1.545 -0.005,3.081 0.239,4.667 0.113,0.789 0.3,1.602 0.565,2.441 0.061,0.217 0.129,0.394 0.239,0.668 0.125,0.31 0.263,0.621 0.414,0.914 0.155,0.274 0.321,0.545 0.495,0.808 0.103,0.117 0.14,0.292 0.301,0.356 l 0.311,0.353 c 0.91,0.843 2.263,1.238 3.423,1.405 0.875,0.121 1.667,0.165 2.424,0.174 1.519,0.021 2.947,-0.057 4.361,-0.157 2.819,-0.207 5.562,-0.522 8.277,-0.807 1.354,-0.142 2.701,-0.279 4.02,-0.383 0.658,-0.051 1.308,-0.092 1.939,-0.118 0.565,-0.025 1.453,-0.017 1.289,-0.013 0.063,0.008 0.14,0.01 0.181,0.068 0.035,0.057 0.048,0.124 0.058,0.188 l 0.032,0.263 c 0.018,0.133 0.033,0.274 0.043,0.421 0.029,0.283 0.041,0.588 0.058,0.887 0.021,0.612 0.026,1.24 0.01,1.877 -0.069,2.553 -0.367,5.205 -0.874,7.716 -0.255,1.24 -0.579,2.498 -0.974,3.448 l -0.063,0.148 -0.022,0.04 c -0.016,0.025 -0.032,0.052 -0.06,0.064 -0.104,0.03 0.099,0.002 -0.688,0.132 -2.421,0.344 -5.249,0.425 -7.983,0.489 -2.764,0.052 -5.56,0.047 -8.371,0.016 -1.913,-0.016 -5.756,-0.093 -7.678,-0.146 -7.701,0.203 -15.42,0.016 -23.114,-0.37 1.891,0.755 -5.892,1.768 9.553,2.199 -0.005,0.134 -0.016,0.404 -0.022,0.539 -7.736,0.012 -13.074,0.356 -14.564,0.899 -1.486,0.534 0.902,1.306 8.628,1.945 8.696,0.668 18.85,1.093 29.565,1.129 2.681,0.003 5.398,-0.022 8.16,-0.121 1.382,-0.05 2.775,-0.12 4.204,-0.238 0.717,-0.061 1.437,-0.13 2.199,-0.239 0.382,-0.055 0.764,-0.112 1.186,-0.2 0.606,-0.126 1.265,-0.302 1.851,-0.55 1.192,-0.511 2.019,-1.565 2.571,-2.748 0.082,-0.146 0.139,-0.282 0.2,-0.423 l 0.134,-0.317 c 0.09,-0.206 0.149,-0.391 0.225,-0.588 0.142,-0.389 0.261,-0.764 0.372,-1.136 0.441,-1.485 0.733,-2.908 0.98,-4.333 0.473,-2.847 0.753,-5.641 0.763,-8.556 -0.003,-0.532 -0.019,-1.073 -0.05,-1.625 L 54.055,34.049 54.003,33.61 c -0.012,-0.123 -0.04,-0.33 -0.09,-0.575 -0.144,-0.937 -0.415,-1.846 -0.83,-2.647 -0.409,-0.805 -1.085,-1.434 -1.864,-1.859 -0.761,-0.443 -1.699,-0.607 -2.64,-0.678 -1.114,-0.09 -1.466,-0.062 -2.044,-0.058 -1.074,0.021 -2.084,0.088 -3.082,0.167 -3.971,0.32 -7.783,0.81 -11.516,1.095 -1.836,0.134 -3.724,0.236 -5.242,0.116 -0.169,-0.021 -0.382,-0.026 -0.511,-0.057 -0.093,-0.015 -0.011,0.002 -0.037,-0.002 l -0.004,0.003 c -0.006,-0.011 0,0.01 0.009,0.031 -0.102,-0.278 -0.213,-0.595 -0.287,-0.959 -0.342,-1.42 -0.44,-3.162 -0.339,-4.777 0.045,-0.812 0.152,-1.62 0.317,-2.303 0.021,-0.083 0.034,-0.182 0.06,-0.253 0.023,-0.073 0.055,-0.175 0.042,-0.144 -0.008,0.003 -0.008,-0.005 -0.007,-0.018 0.001,-0.02 0.003,-0.048 0.02,-0.064 0.01,-0.012 0.023,-0.022 0.038,-0.031 l 0.024,-0.012 c 0.012,-0.002 -0.007,-0.003 0.029,-0.007 l 0.197,-0.017 c 0.514,-0.055 1.129,-0.064 1.734,-0.072 1.236,-0.002 2.542,0.057 3.861,0.135 2.644,0.16 5.362,0.406 8.131,0.615 1.387,0.103 2.788,0.201 4.228,0.26 0.717,0.032 1.452,0.047 2.205,0.046 0.378,-0.001 0.765,-0.011 1.161,-0.027 l 0.61,-0.038 0.322,-0.03 0.481,-0.057 c 0.648,-0.115 1.275,-0.226 1.841,-0.499 0.585,-0.227 1.107,-0.593 1.522,-1.062 0.439,-0.444 0.757,-1 1.027,-1.575 0.129,-0.291 0.224,-0.6 0.337,-0.9 0.061,-0.153 0.091,-0.293 0.133,-0.44 l 0.087,-0.342 c 0.388,-1.713 0.47,-3.216 0.514,-4.718 C 54.498,8.874 54.289,6.009 53.915,3.129 53.819,2.409 53.711,1.69 53.581,0.962 l -0.21,-1.097 -0.122,-0.558 -0.216,-0.86 c -0.335,-1.191 -0.756,-2.373 -1.782,-2.981 -0.49,-0.303 -1.062,-0.487 -1.66,-0.616 -0.301,-0.058 -0.599,-0.129 -0.904,-0.162 -0.28,-0.036 -0.674,-0.095 -0.807,-0.103 -2.959,-0.27 -5.681,-0.271 -8.435,-0.277 -2.738,0.007 -5.439,0.067 -8.106,0.152 -7.762,0.168 -21.313,0.15 -25.169,0.693 -2.771,0.285 -2.871,0.578 -2.435,0.884 6.351,-0.241 12.696,-0.439 19.023,-0.579 6.329,-0.13 12.631,-0.236 18.943,-0.114 1.942,0.039 3.873,0.085 5.879,0.27 l 0.392,0.041 0.526,0.069 c 0.348,0.05 0.702,0.112 1.039,0.198 0.673,0.162 1.333,0.428 1.728,0.99 0.367,0.558 0.586,1.246 0.777,1.926 0.194,0.76 0.277,1.15 0.377,1.668 0.724,3.941 1.071,7.815 0.982,11.851 -0.036,1.013 -0.108,2.034 -0.278,3.099 -0.108,0.561 -0.166,1.009 -0.433,1.772 -0.221,0.711 -0.571,1.379 -1.062,1.919 -0.478,0.567 -1.167,0.879 -1.871,1.085 -0.362,0.081 -0.721,0.176 -1.11,0.213 -0.4,0.051 -0.59,0.064 -0.879,0.082 -1.065,0.067 -2.066,0.056 -3.062,0.033 -3.952,-0.128 -7.771,-0.509 -11.569,-0.746 3.717,0.205 7.479,0.559 11.384,0.683 0.983,0.024 1.972,0.036 3.015,-0.018 0.268,-0.022 0.522,-0.03 0.801,-0.063 0.312,-0.036 0.741,-0.082 1.076,-0.173 0.364,-0.063 0.702,-0.186 1.033,-0.327 0.334,-0.14 0.639,-0.33 0.903,-0.578 0.531,-0.488 0.896,-1.13 1.162,-1.808 0.118,-0.34 0.255,-0.707 0.321,-1.013 0.074,-0.28 0.126,-0.548 0.174,-0.815 0.192,-1.069 0.271,-2.09 0.314,-3.103 C 53.441,8.558 53.103,4.661 52.405,0.686 l -0.15,-0.751 -0.081,-0.377 -0.121,-0.494 C 51.882,-1.616 51.674,-2.321 51.336,-2.906 51.239,-3.042 51.174,-3.209 51.023,-3.295 50.91,-3.425 50.781,-3.539 50.638,-3.627 50.339,-3.788 50.023,-3.919 49.682,-4.004 49.349,-4.107 48.992,-4.16 48.643,-4.226 48.304,-4.271 47.888,-4.333 47.676,-4.349 45.64,-4.55 43.679,-4.606 41.701,-4.656 35.403,-4.745 29.15,-4.6 22.893,-4.427 c -6.256,0.182 -12.506,0.425 -18.751,0.708 0.466,0.261 0.915,0.533 0.162,0.825 0,0 -3.861,0.137 -5.791,0.206 -7.701,0.975 -5.719,1.848 -1.847,2.367 C -2.33,-0.224 -1.201,-0.115 0,0"
               style="fill-opacity:1;fill-rule:nonzero;stroke:none"
               id="path4440" />
          </g>
          <g
             id="g4442"
             transform="translate(233.3174,96.1816)">
            <path
               d="m 0,0 c 0.028,0.198 0.057,0.397 0.083,0.587 0.405,3.602 0.271,7.204 0.541,11.205 0.27,2.801 0.134,6.002 0.134,8.803 C 0.51,13.957 0.604,6.979 -0.331,0.601 -0.649,1.246 -0.904,2.016 -0.904,2.914 -0.778,5.072 -0.69,7.203 -0.63,9.315 l 0.536,0 c -0.405,6.003 0.675,11.605 0,17.608 -0.072,-0.214 -0.182,-0.087 -0.269,-0.043 l -0.001,0.043 0.001,-0.043 c -0.076,0.04 -0.136,0.016 -0.136,-0.358 0,0.374 0.06,0.398 0.136,0.358 0.132,-5.905 0.001,-11.426 -0.261,-17.323 0.253,9.156 -0.01,17.984 -0.01,27.37 l 0,1.6 c 0.405,1.601 0.54,3.202 0.54,4.802 0.675,-0.4 2.025,1.201 1.755,-2.001 l 0.54,0 c 0.675,3.202 2.565,4.403 3.105,1.201 0.54,-3.601 0,-8.404 0.27,-12.804 0.135,-3.203 0.27,-6.404 0,-9.604 C 5.171,15.719 5.306,10.917 4.766,6.516 4.631,4.914 5.036,2.113 4.631,1.312 4.437,0.737 4.15,0.714 3.83,0.802 3.87,3.438 3.91,6.041 3.951,8.65 4.102,11.832 4.27,15.014 4.539,18.194 4.168,15.084 4.024,11.89 3.951,8.65 3.824,6.069 3.699,3.511 3.571,0.885 3.295,0.979 3.008,1.07 2.741,0.913 l 0,-1.201 C 2.066,-1.889 1.121,-1.488 0.446,-0.689 0.309,-0.485 0.154,-0.256 0,0"
               style="fill-opacity:1;fill-rule:nonzero;stroke:none"
               id="path4444" />
          </g>
        </g>
      </g>
      <g
         id="g4446">
        <g
           id="g4448"
           clip-path="url(#clipPath4450)">
          <g
             id="g4454"
             transform="translate(246.3057,169.8447)">
            <path
               d="M 0,0 0.77,12.234 C 7.414,7.679 15.744,3.122 25.33,0 L 0,0 Z m -31.977,53.894 c 2.25,-6.914 6.147,-14.346 11.495,-21.452 L -26.689,0 -36.793,0 -31.977,53.894 Z M -52.352,0 l 0.133,35.456 c 6.571,4.992 11.844,11.992 16.948,21.44 L -43.139,0 -52.352,0 Z m -29.863,25.208 c 4.432,0.161 8.733,0.76 12.875,1.867 L -72.201,0 l -10.014,0 0,25.208 z M -97.229,0 -100.09,27.075 c 4.143,-1.107 8.444,-1.706 12.875,-1.867 l 0,-25.208 -10.014,0 z m -36.667,56.896 c 5.103,-9.448 10.115,-16.448 16.685,-21.44 L -117.078,0 l -9.213,0 -7.605,56.896 z M -142.742,0 l -6.205,32.442 c 5.345,7.106 9.244,14.538 11.494,21.452 L -132.637,0 -142.742,0 Z M -170.201,12.234 -169.43,0 -194.76,0 c 9.586,3.122 17.914,7.679 24.559,12.234 m 10.986,8.757 c 3.203,3.009 6.117,6.193 8.729,9.466 l 2.56,-30.457 -16.636,0 -3.649,13.632 c 3.59,2.591 6.627,5.134 8.996,7.359 m 57.334,6.598 -0.371,-27.589 -9.701,0 -3.572,34.228 c 4.298,-2.995 8.859,-5.171 13.644,-6.639 M -53.904,34.228 -57.479,0 l -9.699,0 -0.371,27.589 c 4.783,1.468 9.346,3.644 13.645,6.639 m 43.689,-13.237 c 2.369,-2.225 5.406,-4.768 8.996,-7.359 L -4.867,0 l -16.639,0 2.563,30.457 c 2.611,-3.273 5.525,-6.457 8.728,-9.466 M 41.958,0 c -43.815,0 -72.19,54.655 -72.19,77.125 l -3.891,1.39 C -42.08,55.483 -61.467,29.807 -84.715,29.807 c -23.25,0 -42.635,25.683 -50.594,48.715 l -3.888,-1.189 C -139.197,54.864 -167.631,0 -211.446,0 l -1.139,-4 80.306,0 0.959,-10.734 7.234,0 -1.605,10.734 38.476,0 5,0 38.477,0 -1.606,-10.734 7.235,0 L -37.15,-4 43.1,-4 41.958,0 Z"
               style="fill-opacity:1;fill-rule:nonzero;stroke:none"
               id="path4456" />
          </g>
        </g>
      </g>
    </g>
  </g>
</svg>
