<?xml version="1.0" encoding="UTF-8"?>
<svg width="290px" height="131px" viewBox="0 0 290 131" version="1.1" xmlns="http://www.w3.org/2000/svg" xmlns:xlink="http://www.w3.org/1999/xlink">
    <title>the-laendmaker-bg</title>
    <g id="Page-1" stroke="none" stroke-width="1" fill="none" fill-rule="evenodd">
        <g id="the-laendmaker-bg" transform="translate(0.000000, -0.000016)">
            <rect id="Rectangle" fill="#FFFF00" fill-rule="nonzero" x="0" y="1.55033272e-05" width="290" height="131"></rect>
            <path d="M290,1.55033272e-05 L290,131.000016 L134.053,131 L135.55,123.791016 C136.181,120.749016 137.599,117.923016 139.662,115.595016 L178.361,71.9031155 C178.876,71.3223155 179.222,70.6131155 179.363,69.8514155 L190.691,8.6507155 C190.952,7.2401155 191.906,6.0535155 193.231,5.4944155 L202.24,1.6875155 C203.836,1.0139155 205.683,1.3646155 206.916,2.5773155 L226.237,21.5619155 C227.334,22.6403155 229.071,22.7130155 230.255,21.7304155 L256.407,0 L290,1.55033272e-05 Z" id="Combined-Shape" fill="#FFFFFF"></path>
            <path d="M34.438,33.9458155 L34.438,28.8213155 L15.4376,28.8213155 L15.4376,33.9458155 L21.8266,33.9458155 L21.8266,52.1143155 L28.0491,52.1143155 L28.0491,33.9458155 L34.438,33.9458155 Z M52.5818,52.1143155 L58.7711,52.1143155 L58.7711,28.8213155 L52.5818,28.8213155 L52.5818,37.8390155 L45.5274,37.8390155 L45.5274,28.8213155 L39.3381,28.8213155 L39.3381,52.1143155 L45.5274,52.1143155 L45.5274,43.0966155 L52.5818,43.0966155 L52.5818,52.1143155 Z M79.3627,33.5465155 L79.3627,28.8213155 L65.154,28.8213155 L65.154,52.1143155 L81.3592,52.1143155 L81.3592,47.3891155 L71.3433,47.3891155 L71.3433,42.7638155 L79.3627,42.7638155 L79.3627,38.0387155 L71.3433,38.0387155 L71.3433,33.5465155 L79.3627,33.5465155 Z M110.98,52.1143155 L110.98,46.8567155 L101.463,46.8567155 L101.463,28.8213155 L95.274,28.8213155 L95.274,52.1143155 L110.98,52.1143155 Z M121.181,21.0016155 C119.417,21.0016155 118.153,22.2328155 118.153,24.0296155 C118.153,25.7932155 119.417,27.0244155 121.181,27.0244155 C122.978,27.0244155 124.276,25.7932155 124.276,24.0296155 C124.276,22.2328155 122.978,21.0016155 121.181,21.0016155 Z M129.167,21.0016155 C127.37,21.0016155 126.106,22.2328155 126.106,24.0296155 C126.106,25.7932155 127.37,27.0244155 129.167,27.0244155 C130.931,27.0244155 132.229,25.7932155 132.229,24.0296155 C132.229,22.2328155 130.931,21.0016155 129.167,21.0016155 Z M114.226,52.1143155 L120.516,52.1143155 L121.547,48.0879155 L128.834,48.0879155 L129.899,52.1143155 L136.188,52.1143155 L136.188,51.6484155 L129.3,28.8213155 L121.114,28.8213155 L114.226,51.6484155 L114.226,52.1143155 Z M122.645,43.4959155 L124.974,34.5780155 L125.44,34.5780155 L127.736,43.4959155 L122.645,43.4959155 Z M154.802,52.1143155 L161.324,52.1143155 L161.324,28.8213155 L155.401,28.8213155 L155.401,42.0983155 L154.935,42.0983155 L147.482,28.8213155 L140.926,28.8213155 L140.926,52.1143155 L146.849,52.1143155 L146.849,38.9371155 L147.315,38.9371155 L154.802,52.1143155 Z M167.717,52.1143155 L176.934,52.1143155 C184.188,52.1143155 187.716,47.1895155 187.716,40.4678155 C187.716,33.7461155 184.188,28.8213155 176.934,28.8213155 L167.717,28.8213155 L167.717,52.1143155 Z M173.906,47.3891155 L173.906,33.5465155 L176.003,33.5465155 C180.328,33.5465155 181.526,35.8425155 181.526,40.4678155 C181.526,45.0931155 180.328,47.3891155 176.003,47.3891155 L173.906,47.3891155 Z" id="Shape" fill="#000000" fill-rule="nonzero"></path>
            <path d="M191.209,51.1074155 C191.018,51.1074155 190.851,51.0836155 190.707,51.0358155 C190.564,50.9881155 190.493,50.8806155 190.493,50.7135155 C190.493,50.5464155 190.564,50.4270155 190.707,50.3554155 C190.875,50.2837155 191.078,50.2121155 191.316,50.1405155 C191.651,50.0211155 191.985,49.8898155 192.319,49.7465155 C192.677,49.5794155 192.856,49.2571155 192.856,48.7796155 L192.856,41.0797155 C192.856,40.4351155 192.785,39.8740155 192.641,39.3965155 C192.498,38.8951155 192.116,38.5967155 191.495,38.5012155 C191.4,38.4773155 191.316,38.4296155 191.245,38.3579155 C191.197,38.2863155 191.173,38.1789155 191.173,38.0356155 C191.173,37.7969155 191.269,37.6536155 191.46,37.6058155 C192.104,37.4387155 192.618,37.2716155 193,37.1045155 C193.382,36.9135155 193.716,36.7105155 194.002,36.4956155 C194.313,36.2569155 194.683,36.0062155 195.113,35.7436155 C195.16,35.7197155 195.208,35.6958155 195.256,35.6719155 C195.304,35.6242155 195.363,35.6003155 195.435,35.6003155 C195.578,35.6003155 195.65,35.6839155 195.65,35.8510155 C195.65,36.0181155 195.614,36.3643155 195.542,36.8896155 C195.495,37.3910155 195.471,37.8088155 195.471,38.1430155 C195.471,38.3818155 195.495,38.5251155 195.542,38.5728155 L195.614,38.5728155 C196.163,38.0475155 196.879,37.5223155 197.763,36.9970155 C198.67,36.4479155 199.816,36.1733155 201.201,36.1733155 C202.06,36.1733155 202.777,36.3643155 203.35,36.7463155 C203.923,37.1045155 204.4,37.7372155 204.782,38.6444155 L204.89,38.6444155 C205.654,37.9520155 206.525,37.3671155 207.504,36.8896155 C208.483,36.4121155 209.557,36.1733155 210.727,36.1733155 C211.515,36.1733155 212.172,36.4121155 212.697,36.8896155 C213.222,37.3671155 213.616,37.9879155 213.879,38.7519155 C214.165,39.5159155 214.308,40.3157155 214.308,41.1514155 L214.308,48.7796155 C214.308,49.2571155 214.476,49.5794155 214.81,49.7465155 C215.144,49.8898155 215.49,50.0211155 215.848,50.1405155 C216.087,50.2121155 216.278,50.2837155 216.421,50.3554155 C216.589,50.4270155 216.672,50.5464155 216.672,50.7135155 C216.672,50.8567155 216.612,50.9522155 216.493,51.0000155 C216.398,51.0716155 216.218,51.1074155 215.956,51.1074155 C215.478,51.1074155 215.108,51.0836155 214.846,51.0358155 C214.583,51.0119155 214.332,50.9881155 214.094,50.9642155 C213.879,50.9403155 213.556,50.9284155 213.127,50.9284155 C212.721,50.9284155 212.386,50.9403155 212.124,50.9642155 C211.861,50.9881155 211.587,51.0119155 211.3,51.0358155 C211.014,51.0836155 210.632,51.1074155 210.154,51.1074155 C209.939,51.1074155 209.76,51.0716155 209.617,51.0000155 C209.498,50.9522155 209.438,50.8567155 209.438,50.7135155 C209.438,50.5225155 209.509,50.3912155 209.653,50.3195155 C209.82,50.2479155 210.023,50.1882155 210.262,50.1405155 C210.644,50.0450155 210.99,49.9137155 211.3,49.7465155 C211.634,49.5794155 211.801,49.2571155 211.801,48.7796155 L211.801,41.2588155 C211.801,40.6858155 211.67,40.1486155 211.408,39.6472155 C211.145,39.1219155 210.799,38.6922155 210.369,38.3579155 C209.939,38.0237155 209.462,37.8565155 208.936,37.8565155 C208.34,37.8565155 207.778,37.9282155 207.253,38.0714155 C206.752,38.2147155 206.274,38.4654155 205.821,38.8235155 C205.152,39.3488155 204.818,40.2083155 204.818,41.4021155 L204.818,48.7796155 C204.818,49.2571155 204.997,49.5794155 205.355,49.7465155 C205.713,49.9137155 206.071,50.0450155 206.43,50.1405155 C206.668,50.1882155 206.859,50.2599155 207.003,50.3554155 C207.17,50.4270155 207.253,50.5464155 207.253,50.7135155 C207.253,50.8567155 207.194,50.9522155 207.074,51.0000155 C206.955,51.0716155 206.776,51.1074155 206.537,51.1074155 C206.059,51.1074155 205.677,51.0836155 205.391,51.0358155 C205.128,51.0119155 204.866,50.9881155 204.603,50.9642155 C204.364,50.9403155 204.03,50.9284155 203.6,50.9284155 C203.194,50.9284155 202.86,50.9403155 202.597,50.9642155 C202.335,50.9881155 202.06,51.0119155 201.774,51.0358155 C201.487,51.0836155 201.105,51.1074155 200.628,51.1074155 C200.437,51.1074155 200.27,51.0716155 200.126,51.0000155 C199.983,50.9522155 199.911,50.8567155 199.911,50.7135155 C199.911,50.5225155 199.995,50.4031155 200.162,50.3554155 C200.353,50.2837155 200.544,50.2121155 200.735,50.1405155 C201.093,50.0211155 201.44,49.8898155 201.774,49.7465155 C202.132,49.5794155 202.311,49.2571155 202.311,48.7796155 L202.311,41.2588155 C202.311,40.6858155 202.18,40.1486155 201.917,39.6472155 C201.654,39.1219155 201.308,38.6922155 200.878,38.3579155 C200.449,38.0237155 199.971,37.8565155 199.446,37.8565155 C198.849,37.8565155 198.288,37.9282155 197.763,38.0714155 C197.261,38.2147155 196.784,38.4654155 196.33,38.8235155 C195.686,39.3010155 195.363,40.1605155 195.363,41.4021155 L195.363,48.7796155 C195.363,49.2571155 195.53,49.5794155 195.865,49.7465155 C196.199,49.8898155 196.545,50.0211155 196.903,50.1405155 C197.094,50.2121155 197.273,50.2837155 197.44,50.3554155 C197.631,50.4031155 197.727,50.5225155 197.727,50.7135155 C197.727,50.8567155 197.655,50.9522155 197.512,51.0000155 C197.393,51.0716155 197.225,51.1074155 197.011,51.1074155 C196.533,51.1074155 196.151,51.0836155 195.865,51.0358155 C195.602,51.0119155 195.351,50.9881155 195.113,50.9642155 C194.874,50.9403155 194.54,50.9284155 194.11,50.9284155 C193.704,50.9284155 193.37,50.9403155 193.107,50.9642155 C192.868,50.9881155 192.606,51.0119155 192.319,51.0358155 C192.056,51.0836155 191.686,51.1074155 191.209,51.1074155 Z M222.056,51.5014155 C221.626,51.5014155 221.184,51.3343155 220.73,51.0000155 C220.301,50.6657155 219.931,50.2599155 219.62,49.7823155 C219.334,49.3048155 219.19,48.8512155 219.19,48.4214155 C219.19,47.6574155 219.393,47.0605155 219.799,46.6308155 C220.205,46.2010155 220.85,45.8071155 221.733,45.4489155 L225.386,43.9448155 C225.864,43.7538155 226.138,43.5867155 226.21,43.4434155 C226.305,43.3002155 226.365,42.9898155 226.389,42.5123155 L226.461,40.2202155 C226.484,39.5994155 226.305,39.0623155 225.923,38.6086155 C225.565,38.1550155 225.04,37.9282155 224.348,37.9282155 C223.989,37.9282155 223.631,37.9879155 223.273,38.1072155 C222.915,38.2266155 222.617,38.3818155 222.378,38.5728155 C222.235,38.6683155 222.139,38.8116155 222.091,39.0026155 C222.044,39.1936155 222.02,39.3965155 222.02,39.6114155 C222.02,39.7069155 222.02,39.8143155 222.02,39.9337155 C222.044,40.0531155 222.056,40.1605155 222.056,40.2560155 C222.056,40.3754155 221.9,40.5425155 221.59,40.7574155 C221.303,40.9484155 220.969,41.1275155 220.587,41.2946155 C220.229,41.4379155 219.931,41.5095155 219.692,41.5095155 C219.572,41.5095155 219.477,41.4856155 219.405,41.4379155 C219.334,41.3662155 219.298,41.2827155 219.298,41.1872155 C219.298,40.8052155 219.417,40.3993155 219.656,39.9695155 C219.919,39.5159155 220.277,39.0981155 220.73,38.7161155 C221.28,38.2147155 221.876,37.7730155 222.521,37.3910155 C223.166,37.0090155 223.798,36.7105155 224.419,36.4956155 C225.04,36.2808155 225.589,36.1733155 226.067,36.1733155 C226.926,36.1733155 227.63,36.4837155 228.18,37.1045155 C228.753,37.7013155 229.027,38.4534155 229.003,39.3607155 L228.824,47.9559155 C228.8,48.4573155 228.908,48.8631155 229.147,49.1735155 C229.409,49.4839155 229.732,49.6391155 230.114,49.6391155 C230.71,49.6391155 231.152,49.5078155 231.439,49.2452155 C231.558,49.1258155 231.653,49.0661155 231.725,49.0661155 C231.845,49.0661155 231.94,49.1019155 232.012,49.1735155 C232.083,49.2452155 232.119,49.3407155 232.119,49.4600155 C232.119,49.7227155 231.988,49.9853155 231.725,50.2479155 C231.343,50.6299155 230.925,50.9284155 230.472,51.1433155 C230.042,51.3820155 229.636,51.5014155 229.254,51.5014155 C228.156,51.5014155 227.284,50.8806155 226.64,49.6391155 L226.532,49.6391155 C225.744,50.2837155 224.992,50.7493155 224.276,51.0358155 C223.56,51.3462155 222.82,51.5014155 222.056,51.5014155 Z M223.739,49.7823155 C224.216,49.7823155 224.622,49.7107155 224.956,49.5675155 C225.291,49.4003155 225.589,49.1855155 225.852,48.9228155 C225.971,48.8035155 226.067,48.6483155 226.138,48.4573155 C226.234,48.2424155 226.293,47.9081155 226.317,47.4545155 L226.389,45.6996155 C226.413,45.4370155 226.401,45.2460155 226.353,45.1266155 C226.305,45.0073155 226.21,44.9476155 226.067,44.9476155 C226.019,44.9476155 225.935,44.9595155 225.816,44.9834155 C225.697,45.0073155 225.541,45.0550155 225.35,45.1266155 C224.085,45.5803155 223.202,46.0578155 222.7,46.5592155 C222.223,47.0367155 221.984,47.4784155 221.984,47.8842155 C221.984,48.5050155 222.163,48.9825155 222.521,49.3168155 C222.903,49.6272155 223.309,49.7823155 223.739,49.7823155 Z M234.032,51.1074155 C233.483,51.1074155 233.208,50.9761155 233.208,50.7135155 C233.208,50.5225155 233.292,50.4031155 233.459,50.3554155 C233.65,50.2837155 233.841,50.2121155 234.032,50.1405155 C234.39,50.0211155 234.736,49.8659155 235.071,49.6749155 C235.405,49.4839155 235.572,49.1496155 235.572,48.6721155 L235.572,30.7297155 C235.572,29.8941155 235.453,29.2852155 235.214,28.9032155 C234.975,28.5212155 234.557,28.2586155 233.96,28.1153155 C233.745,28.0676155 233.638,27.9124155 233.638,27.6498155 C233.638,27.4110155 233.734,27.2678155 233.925,27.2200155 C234.545,27.0768155 235.083,26.9335155 235.536,26.7902155 C235.99,26.6231155 236.396,26.4679155 236.754,26.3247155 C237.136,26.1575155 237.506,26.0024155 237.864,25.8591155 C238.007,25.7875155 238.115,25.7517155 238.186,25.7517155 C238.258,25.7517155 238.306,25.7755155 238.33,25.8233155 C238.377,25.8710155 238.401,25.9546155 238.401,26.0740155 C238.401,26.3127155 238.342,26.7902155 238.222,27.5065155 C238.127,28.2228155 238.079,29.3449155 238.079,30.8730155 L238.079,42.6197155 C238.079,42.8346155 238.139,42.9420155 238.258,42.9420155 C238.401,42.9420155 238.58,42.8823155 238.795,42.7630155 C239.034,42.6436155 239.285,42.4645155 239.547,42.2258155 C240.526,41.3901155 241.338,40.6380155 241.983,39.9695155 C242.651,39.2771155 243.105,38.7996155 243.343,38.5370155 C243.463,38.3937155 243.546,38.2863155 243.594,38.2147155 C243.642,38.1192155 243.666,38.0475155 243.666,37.9998155 C243.666,37.8804155 243.558,37.7730155 243.343,37.6775155 C243.152,37.5820155 242.95,37.5103155 242.735,37.4626155 C242.448,37.3910155 242.305,37.2716155 242.305,37.1045155 C242.305,36.9851155 242.376,36.8896155 242.52,36.8180155 C242.663,36.7225155 242.854,36.6747155 243.093,36.6747155 L244.848,36.6747155 C245.23,36.6747155 245.624,36.6389155 246.029,36.5673155 C246.459,36.4956155 246.853,36.4240155 247.211,36.3524155 C247.593,36.2808155 247.892,36.2449155 248.107,36.2449155 C248.441,36.2449155 248.608,36.3643155 248.608,36.6031155 C248.608,36.7463155 248.524,36.8776155 248.357,36.9970155 C248.19,37.0925155 247.975,37.1761155 247.713,37.2477155 C247.259,37.3671155 246.829,37.5342155 246.423,37.7491155 C246.041,37.9640155 245.683,38.1669155 245.349,38.3579155 C245.206,38.4534155 244.871,38.7161155 244.346,39.1458155 C243.845,39.5517155 243.26,40.0292155 242.591,40.5783155 C241.947,41.1275155 241.338,41.6527155 240.765,42.1541155 C240.622,42.2974155 240.55,42.4168155 240.55,42.5123155 C240.55,42.5361155 240.562,42.5719155 240.586,42.6197155 C240.61,42.6675155 240.634,42.7152155 240.657,42.7630155 C241.278,43.5270155 241.947,44.3029155 242.663,45.0908155 C243.379,45.8787155 244.036,46.5711155 244.633,47.1680155 C245.253,47.7649155 245.683,48.1827155 245.922,48.4214155 C246.328,48.8035155 246.782,49.1496155 247.283,49.4600155 C247.808,49.7465155 248.25,49.9495155 248.608,50.0689155 C248.871,50.1644155 249.109,50.2479155 249.324,50.3195155 C249.563,50.3912155 249.682,50.5225155 249.682,50.7135155 C249.682,50.9761155 249.444,51.1074155 248.966,51.1074155 C248.035,51.1074155 246.984,51.0836155 245.815,51.0358155 C244.669,51.0119155 243.487,51.0000155 242.269,51.0000155 C241.839,51.0000155 241.624,50.8926155 241.624,50.6777155 C241.624,50.5344155 241.684,50.4151155 241.803,50.3195155 C241.923,50.2240155 242.066,50.1524155 242.233,50.1047155 C242.496,50.0092155 242.723,49.9017155 242.914,49.7823155 C243.105,49.6630155 243.2,49.4958155 243.2,49.2810155 C243.2,49.2093155 243.176,49.1377155 243.129,49.0661155 C243.081,48.9706155 243.021,48.8751155 242.95,48.7796155 L238.616,43.8732155 C238.473,43.7060155 238.353,43.6225155 238.258,43.6225155 C238.139,43.6225155 238.079,43.7060155 238.079,43.8732155 C238.055,44.2074155 238.043,44.5775155 238.043,44.9834155 C238.043,45.3654155 238.043,45.7593155 238.043,46.1652155 C238.043,46.5711155 238.043,46.9889155 238.043,47.4187155 C238.043,47.8484155 238.055,48.2663155 238.079,48.6721155 C238.079,49.1496155 238.198,49.4839155 238.437,49.6749155 C238.676,49.8659155 238.974,50.0211155 239.332,50.1405155 C239.523,50.2121155 239.702,50.2837155 239.87,50.3554155 C240.061,50.4031155 240.156,50.5225155 240.156,50.7135155 C240.156,50.8806155 240.037,50.9881155 239.798,51.0358155 C239.583,51.0836155 239.428,51.1074155 239.332,51.1074155 C238.879,51.1074155 238.544,51.0836155 238.33,51.0358155 C238.115,51.0119155 237.912,50.9881155 237.721,50.9642155 C237.554,50.9403155 237.255,50.9284155 236.825,50.9284155 C236.42,50.9284155 236.097,50.9403155 235.858,50.9642155 C235.62,50.9881155 235.369,51.0119155 235.106,51.0358155 C234.868,51.0836155 234.51,51.1074155 234.032,51.1074155 Z M257.302,51.5372155 C255.989,51.5372155 254.842,51.2149155 253.864,50.5702155 C252.885,49.9256155 252.121,49.0183155 251.572,47.8484155 C251.022,46.6547155 250.748,45.2818155 250.748,43.7299155 C250.748,42.3451155 251.058,41.0917155 251.679,39.9695155 C252.324,38.8235155 253.171,37.9043155 254.222,37.2119155 C255.272,36.5195155 256.418,36.1733155 257.66,36.1733155 C258.615,36.1733155 259.462,36.3643155 260.203,36.7463155 C260.943,37.1283155 261.516,37.6655155 261.922,38.3579155 C262.351,39.0264155 262.566,39.8024155 262.566,40.6858155 C262.566,41.4259155 262.208,41.7960155 261.492,41.7960155 L253.935,41.7960155 C253.601,41.7960155 253.362,41.8915155 253.219,42.0825155 C253.1,42.2496155 253.04,42.5958155 253.04,43.1211155 C253.04,44.2671155 253.291,45.3176155 253.792,46.2727155 C254.293,47.2038155 254.962,47.9559155 255.798,48.5289155 C256.633,49.0780155 257.552,49.3526155 258.555,49.3526155 C259.271,49.3526155 259.916,49.2213155 260.489,48.9586155 C261.086,48.6721155 261.611,48.2663155 262.065,47.7410155 C262.16,47.6216155 262.232,47.5500155 262.28,47.5261155 C262.327,47.4784155 262.387,47.4545155 262.459,47.4545155 C262.65,47.4545155 262.745,47.5739155 262.745,47.8126155 C262.745,48.2663155 262.53,48.7676155 262.101,49.3168155 C261.742,49.7704155 261.313,50.1644155 260.811,50.4986155 C260.31,50.8329155 259.761,51.0836155 259.164,51.2507155 C258.567,51.4417155 257.946,51.5372155 257.302,51.5372155 Z M254.007,40.6858155 L257.266,40.6858155 C257.839,40.6858155 258.328,40.6738155 258.734,40.6500155 C259.14,40.6261155 259.534,40.5783155 259.916,40.5067155 C260.035,40.4828155 260.107,40.4112155 260.131,40.2918155 C260.179,40.1486155 260.203,39.9576155 260.203,39.7188155 C260.203,39.0264155 259.892,38.4415155 259.271,37.9640155 C258.674,37.4626155 257.958,37.2119155 257.123,37.2119155 C256.573,37.2119155 256.024,37.3790155 255.475,37.7133155 C254.926,38.0237155 254.472,38.4176155 254.114,38.8951155 C253.756,39.3726155 253.577,39.8501155 253.577,40.3277155 C253.577,40.5664155 253.72,40.6858155 254.007,40.6858155 Z M265.741,51.1074155 C265.502,51.1074155 265.323,51.0716155 265.204,51.0000155 C265.084,50.9522155 265.025,50.8567155 265.025,50.7135155 C265.025,50.5225155 265.096,50.4031155 265.24,50.3554155 C265.383,50.2837155 265.586,50.2121155 265.848,50.1405155 C266.302,50.0211155 266.636,49.8540155 266.851,49.6391155 C267.09,49.4003155 267.209,49.1138155 267.209,48.7796155 L267.209,41.0797155 C267.209,40.4351155 267.114,39.8740155 266.923,39.3965155 C266.732,38.9190155 266.338,38.6206155 265.741,38.5012155 C265.645,38.4773155 265.562,38.4176155 265.49,38.3221155 C265.419,38.2266155 265.383,38.1311155 265.383,38.0356155 C265.383,37.7969155 265.49,37.6536155 265.705,37.6058155 C266.326,37.4148155 266.971,37.1403155 267.639,36.7821155 C268.331,36.4001155 268.869,36.0898155 269.251,35.8510155 C269.394,35.7555155 269.501,35.6958155 269.573,35.6719155 C269.669,35.6242155 269.74,35.6003155 269.788,35.6003155 C269.907,35.6003155 269.967,35.6839155 269.967,35.8510155 C269.967,35.9226155 269.955,36.1017155 269.931,36.3882155 C269.931,36.6747155 269.919,37.0090155 269.895,37.3910155 C269.895,37.7730155 269.883,38.1550155 269.86,38.5370155 C269.86,38.5847155 269.883,38.6086155 269.931,38.6086155 C270.313,38.1311155 270.731,37.7133155 271.185,37.3552155 C271.662,36.9970155 272.14,36.7105155 272.617,36.4956155 C273.119,36.2808155 273.596,36.1733155 274.05,36.1733155 C274.551,36.1733155 274.957,36.2808155 275.267,36.4956155 C275.602,36.7105155 275.769,36.9851155 275.769,37.3193155 C275.769,37.5581155 275.697,37.8207155 275.554,38.1072155 C275.434,38.3937155 275.267,38.6444155 275.052,38.8593155 C274.838,39.0742155 274.611,39.1816155 274.372,39.1816155 C274.229,39.1816155 274.074,39.1578155 273.906,39.1100155 C273.739,39.0384155 273.56,38.9548155 273.369,38.8593155 C273.178,38.7877155 272.987,38.7161155 272.796,38.6444155 C272.605,38.5728155 272.414,38.5370155 272.223,38.5370155 C271.65,38.5370155 271.089,38.7399155 270.54,39.1458155 C270.015,39.5517155 269.752,40.3515155 269.752,41.5453155 L269.752,48.7796155 C269.752,49.0900155 269.919,49.3526155 270.253,49.5675155 C270.588,49.7585155 271.053,49.9495155 271.65,50.1405155 C271.913,50.2121155 272.116,50.2837155 272.259,50.3554155 C272.402,50.4270155 272.474,50.5464155 272.474,50.7135155 C272.474,50.9761155 272.235,51.1074155 271.758,51.1074155 C271.041,51.1074155 270.492,51.0716155 270.11,51.0000155 C269.752,50.9522155 269.263,50.9284155 268.642,50.9284155 C268.236,50.9284155 267.902,50.9403155 267.639,50.9642155 C267.4,50.9881155 267.138,51.0119155 266.851,51.0358155 C266.589,51.0836155 266.219,51.1074155 265.741,51.1074155 Z" id="Shape" fill="#000000" fill-rule="nonzero"></path>
        </g>
    </g>
</svg>